<svg width="16" height="16" viewBox="0 0 16 16" fill="none" xmlns="http://www.w3.org/2000/svg">
<path d="M1.5 13V9.5C1.50157 8.97005 1.71278 8.46225 2.08752 8.08752C2.46225 7.71278 2.97005 7.50157 3.5 7.5H12.5C13.03 7.50157 13.5377 7.71278 13.9125 8.08752C14.2872 8.46225 14.4984 8.97005 14.5 9.5V13M12 7.5H3V4.25C3.00099 3.91878 3.133 3.60142 3.36721 3.36721C3.60142 3.133 3.91878 3.00099 4.25 3H11.75C12.0812 3.00099 12.3986 3.133 12.6328 3.36721C12.867 3.60142 12.999 3.91878 13 4.25V7.5H12Z" stroke="white" stroke-linecap="round" stroke-linejoin="round"/>
<path d="M1.5 13V12.75C1.50058 12.5513 1.57978 12.3608 1.72031 12.2203C1.86083 12.0798 2.05127 12.0006 2.25 12H13.75C13.9487 12.0006 14.1392 12.0798 14.2797 12.2203C14.4202 12.3608 14.4994 12.5513 14.5 12.75V13M3.5 7.5V7C3.50074 6.73501 3.60634 6.48109 3.79371 6.29371C3.98109 6.10634 4.23501 6.00074 4.5 6H7C7.26499 6.00074 7.51891 6.10634 7.70629 6.29371C7.89366 6.48109 7.99926 6.73501 8 7M8 7V7.5M8 7C8.00074 6.73501 8.10634 6.48109 8.29371 6.29371C8.48109 6.10634 8.73501 6.00074 9 6H11.5C11.765 6.00074 12.0189 6.10634 12.2063 6.29371C12.3937 6.48109 12.4993 6.73501 12.5 7V7.5" stroke="white" stroke-linecap="round" stroke-linejoin="round"/>
</svg>
