<svg width="16" height="17" viewBox="0 0 16 17" fill="none" xmlns="http://www.w3.org/2000/svg">
<g id="call-outline">
<path id="Vector" d="M14.0939 12.1875C13.5977 11.6875 12.3958 10.9578 11.8127 10.6638C11.0533 10.2813 10.9908 10.25 10.3939 10.6934C9.9958 10.9894 9.73112 11.2538 9.26518 11.1544C8.79924 11.055 7.78674 10.4947 6.90018 9.61094C6.01362 8.72719 5.4208 7.68531 5.32112 7.22094C5.22143 6.75656 5.49018 6.495 5.7833 6.09594C6.19643 5.53344 6.16518 5.43969 5.81205 4.68031C5.53674 4.08969 4.7858 2.89906 4.28393 2.40531C3.74705 1.875 3.74705 1.96875 3.40112 2.1125C3.11948 2.231 2.84929 2.37504 2.59393 2.54281C2.09393 2.875 1.81643 3.15094 1.62237 3.56563C1.4283 3.98031 1.34112 4.9525 2.3433 6.77313C3.34549 8.59375 4.04862 9.52469 5.50393 10.9759C6.95924 12.4272 8.0783 13.2075 9.71424 14.125C11.738 15.2584 12.5142 15.0375 12.9302 14.8438C13.3461 14.65 13.6233 14.375 13.9561 13.875C14.1243 13.6201 14.2687 13.3502 14.3874 13.0688C14.5314 12.7241 14.6252 12.7241 14.0939 12.1875Z" stroke="#123740" stroke-miterlimit="10"/>
</g>
</svg>
