<svg width="32" height="32" viewBox="0 0 32 32" fill="none" xmlns="http://www.w3.org/2000/svg">
<g id="images-outline">
<path id="Vector" d="M27 7V6C26.9977 5.20506 26.6809 4.44334 26.1188 3.88123C25.5567 3.31912 24.7949 3.00231 24 3H4C3.20506 3.00231 2.44334 3.31912 1.88123 3.88123C1.31912 4.44334 1.00231 5.20506 1 6V22C1.00231 22.7949 1.31912 23.5567 1.88123 24.1188C2.44334 24.6809 3.20506 24.9977 4 25H5" stroke="#F1802D" stroke-width="2" stroke-linejoin="round"/>
<path id="Vector_2" d="M28.1256 8H8.87438C7.2869 8 6 9.2869 6 10.8744V26.1256C6 27.7131 7.2869 29 8.87438 29H28.1256C29.7131 29 31 27.7131 31 26.1256V10.8744C31 9.2869 29.7131 8 28.1256 8Z" stroke="#F1802D" stroke-width="2" stroke-linejoin="round"/>
<path id="Vector_3" d="M23.3074 15.6369C24.3695 15.6369 25.2305 14.782 25.2305 13.7275C25.2305 12.673 24.3695 11.8181 23.3074 11.8181C22.2453 11.8181 21.3843 12.673 21.3843 13.7275C21.3843 14.782 22.2453 15.6369 23.3074 15.6369Z" stroke="#F1802D" stroke-width="2" stroke-miterlimit="10"/>
<path id="Vector_4" d="M21.3844 23.2606L15.9375 17.8613C15.5893 17.5172 15.1236 17.3181 14.6343 17.3041C14.145 17.29 13.6686 17.4621 13.3013 17.7856L6 24.2275M16.5769 29L23.9888 21.6419C24.3298 21.3055 24.7834 21.1074 25.2619 21.0859C25.7405 21.0643 26.21 21.2207 26.58 21.525L31 25.1819" stroke="#F1802D" stroke-width="2" stroke-linecap="round" stroke-linejoin="round"/>
</g>
</svg>
