<svg width="87" height="30" viewBox="0 0 87 30" fill="none" xmlns="http://www.w3.org/2000/svg">
<path d="M8.95162 14.2048L14.7064 21.8496L13.063 24.7349L6.73028 16.6097L6.15042 15.7687L5.79191 15.0762L5.52882 14.3976L5.36249 13.8098L5.2147 12.9357L5.17627 12.1988L5.27236 11.0378L5.49304 10.1113L5.88005 9.13254L6.28031 8.4175L6.55334 8.01922L7.13452 7.32406L7.81775 6.68854L8.52286 6.17826L9.30152 5.7442L10.104 5.41418L10.9788 5.17031L12.0186 5H12.5878L13.5507 5.06031L14.3366 5.20146L12.947 7.48708L12.0457 7.51491L11.2816 7.66799L10.829 7.8277L10.2207 8.13585L9.65738 8.54274L9.0212 9.21206L8.71637 9.66799L8.48509 10.1319L8.31477 10.6143L8.19946 11.1551L8.15639 11.7555L8.18753 12.2644L8.28429 12.7826L8.47382 13.3506L8.68323 13.784L8.95162 14.2048Z" fill="white" stroke="white" stroke-width="0.331345" stroke-miterlimit="10"/>
<path d="M12.9473 18.5852L15.0334 21.2764L16.2349 19.5879L17.2216 18.2002L18.8691 16.0233L19.1885 15.4785L19.4337 14.9629L19.6365 14.4335L19.7505 14.057L19.8764 13.5156L19.9493 13.0458L20.0003 12.3539V11.8708L19.9605 11.45L19.889 10.949L19.8035 10.5461L19.7107 10.1995L19.5609 9.75155L19.384 9.32014L19.1633 8.87348L19.0559 8.68064L18.8916 8.4096L18.6868 8.10675L18.492 7.84565L18.3356 7.65281L18.1494 7.43942L17.9261 7.20417L17.7551 7.03783L17.5556 6.85559L17.2892 6.63293L17.0354 6.43942L16.651 6.177L16.4145 6.03187L16.1739 5.89734L15.9088 5.76149L15.6835 5.65612L15.3522 5.51762L14.9605 5.37646L13.6292 7.61702L14.0679 7.74823L14.5013 7.92981L14.8923 8.1432L15.266 8.39966L15.6 8.68263L15.9824 9.08952L16.2998 9.52822L16.5218 9.9265L16.6756 10.2817L16.7982 10.6588L16.8916 11.0915L16.9148 11.2585L16.942 11.6137L16.9446 11.9292L16.9068 12.3162L16.8068 12.8211L16.7279 13.0822L16.5974 13.4215L16.4436 13.7363L16.2514 14.057L15.9572 14.4507L12.9473 18.5852Z" fill="white" stroke="white" stroke-width="0.331345" stroke-miterlimit="10"/>
<path d="M10.947 12.5474L9.56594 15.0205L5.17628 17.829L4 16.3008L10.947 12.5474Z" fill="white" stroke="white" stroke-width="0.331345" stroke-miterlimit="10"/>
<path d="M36.1992 23H33.875V8.72266H41.9414V10.6953H36.1992V15.1484H41.5703V17.1113H36.1992V23ZM49.8132 11.9844C49.9955 11.9844 50.1941 11.9941 50.4089 12.0137C50.6237 12.0332 50.8093 12.0592 50.9655 12.0918L50.7507 14.2402C50.614 14.2012 50.4447 14.1719 50.2429 14.1523C50.0476 14.1328 49.8718 14.123 49.7155 14.123C49.3054 14.123 48.9148 14.1914 48.5437 14.3281C48.1726 14.4583 47.8438 14.6602 47.5573 14.9336C47.2709 15.2005 47.0463 15.5358 46.8835 15.9395C46.7208 16.3431 46.6394 16.8118 46.6394 17.3457V23H44.3347V12.1895H46.1316L46.4441 14.0938H46.5515C46.7663 13.7096 47.0333 13.3581 47.3523 13.0391C47.6713 12.7201 48.0359 12.4661 48.446 12.2773C48.8627 12.082 49.3184 11.9844 49.8132 11.9844ZM55.2924 12.1895V23H52.9975V12.1895H55.2924ZM54.1596 8.04883C54.5112 8.04883 54.8139 8.14323 55.0678 8.33203C55.3282 8.52083 55.4584 8.84635 55.4584 9.30859C55.4584 9.76432 55.3282 10.0898 55.0678 10.2852C54.8139 10.474 54.5112 10.5684 54.1596 10.5684C53.795 10.5684 53.4858 10.474 53.2319 10.2852C52.9845 10.0898 52.8608 9.76432 52.8608 9.30859C52.8608 8.84635 52.9845 8.52083 53.2319 8.33203C53.4858 8.14323 53.795 8.04883 54.1596 8.04883ZM61.6994 27.8047C60.2345 27.8047 59.1115 27.541 58.3302 27.0137C57.549 26.4863 57.1584 25.7474 57.1584 24.7969C57.1584 24.1328 57.3667 23.5697 57.7834 23.1074C58.2 22.6517 58.7957 22.3359 59.5705 22.1602C59.2775 22.0299 59.0236 21.8281 58.8088 21.5547C58.6004 21.2747 58.4963 20.9655 58.4963 20.627C58.4963 20.2233 58.6102 19.8783 58.838 19.5918C59.0659 19.3053 59.4077 19.0286 59.8634 18.7617C59.297 18.5208 58.8413 18.1302 58.4963 17.5898C58.1577 17.043 57.9884 16.4017 57.9884 15.666C57.9884 14.8848 58.1545 14.2207 58.4865 13.6738C58.8185 13.1204 59.3035 12.7005 59.9416 12.4141C60.5796 12.1211 61.3511 11.9746 62.256 11.9746C62.4513 11.9746 62.6629 11.9876 62.8908 12.0137C63.1252 12.0332 63.34 12.0592 63.5353 12.0918C63.7371 12.1178 63.8901 12.1471 63.9943 12.1797H67.7345V13.459L65.8986 13.8008C66.0744 14.0482 66.2143 14.3314 66.3185 14.6504C66.4227 14.9629 66.4748 15.3047 66.4748 15.6758C66.4748 16.7956 66.0874 17.6777 65.3127 18.3223C64.5444 18.9603 63.4832 19.2793 62.1291 19.2793C61.8035 19.2663 61.4878 19.2402 61.1818 19.2012C60.9474 19.3444 60.7684 19.5039 60.6447 19.6797C60.521 19.849 60.4591 20.041 60.4591 20.2559C60.4591 20.4316 60.521 20.5749 60.6447 20.6855C60.7684 20.7897 60.9507 20.8678 61.1916 20.9199C61.439 20.972 61.7384 20.998 62.09 20.998H63.9552C65.1401 20.998 66.0451 21.2487 66.6701 21.75C67.2951 22.2513 67.6076 22.987 67.6076 23.957C67.6076 25.1875 67.0998 26.1348 66.0841 26.7988C65.0685 27.4694 63.6069 27.8047 61.6994 27.8047ZM61.7873 26.1934C62.588 26.1934 63.2619 26.1152 63.8088 25.959C64.3556 25.8027 64.769 25.5781 65.049 25.2852C65.3289 24.9987 65.4689 24.6569 65.4689 24.2598C65.4689 23.9082 65.381 23.638 65.2052 23.4492C65.0295 23.2604 64.7658 23.1302 64.4142 23.0586C64.0627 22.987 63.6265 22.9512 63.1056 22.9512H61.4064C60.9832 22.9512 60.6089 23.0163 60.2834 23.1465C59.9578 23.2832 59.7039 23.4785 59.5216 23.7324C59.3459 23.9863 59.258 24.2923 59.258 24.6504C59.258 25.1452 59.4761 25.526 59.9123 25.793C60.355 26.0599 60.98 26.1934 61.7873 26.1934ZM62.2365 17.7754C62.9071 17.7754 63.4051 17.5931 63.7306 17.2285C64.0561 16.8574 64.2189 16.3366 64.2189 15.666C64.2189 14.9368 64.0496 14.39 63.7111 14.0254C63.3791 13.6608 62.8843 13.4785 62.2267 13.4785C61.5822 13.4785 61.0907 13.6641 60.7521 14.0352C60.4201 14.4062 60.2541 14.9564 60.2541 15.6855C60.2541 16.3431 60.4201 16.8574 60.7521 17.2285C61.0907 17.5931 61.5854 17.7754 62.2365 17.7754ZM68.7997 18.6055V16.6621H73.8387V18.6055H68.7997ZM85.7828 17.5703C85.7828 18.4688 85.6656 19.2663 85.4313 19.9629C85.1969 20.6595 84.8551 21.2487 84.4059 21.7305C83.9566 22.2057 83.4163 22.5703 82.7848 22.8242C82.1533 23.0716 81.4404 23.1953 80.6461 23.1953C79.9039 23.1953 79.2236 23.0716 78.6051 22.8242C77.9866 22.5703 77.4495 22.2057 76.9938 21.7305C76.5445 21.2487 76.1962 20.6595 75.9488 19.9629C75.7014 19.2663 75.5777 18.4688 75.5777 17.5703C75.5777 16.3789 75.7828 15.3698 76.193 14.543C76.6096 13.7096 77.2021 13.0749 77.9703 12.6387C78.7385 12.2025 79.6533 11.9844 80.7145 11.9844C81.7105 11.9844 82.5895 12.2025 83.3512 12.6387C84.1129 13.0749 84.7086 13.7096 85.1383 14.543C85.568 15.3763 85.7828 16.3854 85.7828 17.5703ZM77.941 17.5703C77.941 18.3581 78.0354 19.0319 78.2242 19.5918C78.4195 20.1517 78.719 20.5814 79.1227 20.8809C79.5263 21.1738 80.0471 21.3203 80.6852 21.3203C81.3232 21.3203 81.844 21.1738 82.2477 20.8809C82.6513 20.5814 82.9475 20.1517 83.1363 19.5918C83.3251 19.0319 83.4195 18.3581 83.4195 17.5703C83.4195 16.7826 83.3251 16.1152 83.1363 15.5684C82.9475 15.015 82.6513 14.5951 82.2477 14.3086C81.844 14.0156 81.3199 13.8691 80.6754 13.8691C79.7249 13.8691 79.0315 14.1882 78.5953 14.8262C78.1591 15.4642 77.941 16.3789 77.941 17.5703Z" fill="white"/>
</svg>
