<svg width="153" height="51" viewBox="0 0 153 51" fill="none" xmlns="http://www.w3.org/2000/svg">
<path d="M17.9032 23.9095L29.4129 39.1991L26.1259 44.9699L13.4606 28.7194L12.3008 27.0374L11.5838 25.6524L11.0576 24.2952L10.725 23.1196L10.4294 21.3714L10.3525 19.8976L10.5447 17.5755L10.9861 15.7227L11.7601 13.7651L12.5606 12.335L13.1067 11.5384L14.269 10.1481L15.6355 8.87707L17.0457 7.85653L18.603 6.9884L20.2081 6.32836L21.9576 5.84062L24.0371 5.5H25.1756L27.1014 5.62061L28.6733 5.90292L25.894 10.4742L24.0914 10.5298L22.5633 10.836L21.658 11.1554L20.4413 11.7717L19.3148 12.5855L18.0424 13.9241L17.4327 14.836L16.9702 15.7638L16.6295 16.7286L16.3989 17.8101L16.3128 19.0109L16.3751 20.0288L16.5686 21.0653L16.9476 22.2011L17.3665 23.0679L17.9032 23.9095Z" fill="#FC650E" stroke="white" stroke-width="0.662691" stroke-miterlimit="10"/>
<path d="M25.894 32.6703L30.0663 38.0527L32.4693 34.6756L34.4428 31.9003L37.7376 27.5464L38.3765 26.4569L38.8669 25.4258L39.2724 24.3668L39.5004 23.614L39.7522 22.5311L39.898 21.5914L40.0001 20.2077V19.2415L39.9205 18.3999L39.7774 17.3979L39.6064 16.5921L39.4209 15.8989L39.1214 15.003L38.7675 14.1402L38.3261 13.2468L38.1114 12.8612L37.7827 12.3191L37.3732 11.7134L36.9835 11.1912L36.6707 10.8055L36.2983 10.3787L35.8516 9.90821L35.5097 9.57554L35.1108 9.21106L34.5779 8.76573L34.0703 8.37872L33.3016 7.85387L32.8284 7.56361L32.3473 7.29456L31.8172 7.02285L31.3665 6.81212L30.7039 6.53511L29.9206 6.25281L27.2579 10.7339L28.1353 10.9963L29.0021 11.3595L29.784 11.7863L30.5316 12.2992L31.1995 12.8651L31.9643 13.6789L32.5991 14.5563L33.0431 15.3529L33.3506 16.0633L33.5958 16.8174L33.7827 17.6829L33.8291 18.0169L33.8834 18.7273L33.8887 19.3582L33.8132 20.1322L33.6131 21.1421L33.4554 21.6643L33.1942 22.3429L32.8868 22.9725L32.5024 23.614L31.9139 24.4013L25.894 32.6703Z" fill="#1B214F" stroke="#1B214F" stroke-width="0.662691" stroke-miterlimit="10"/>
<path d="M21.894 20.5948L19.1319 25.5411L10.3526 31.1581L8 28.1017L21.894 20.5948Z" fill="#FC650E" stroke="#FC650E" stroke-width="0.662691" stroke-miterlimit="10"/>
<path d="M64.1182 39H59.0547V14.7285H72.9668V18.9453H64.1182V25.2041H72.3525V29.4043H64.1182V39ZM87.7608 20.0908C88.0153 20.0908 88.3086 20.1074 88.6407 20.1406C88.9838 20.1628 89.2605 20.196 89.4707 20.2402L89.0889 24.9883C88.9229 24.9329 88.6849 24.8942 88.375 24.8721C88.0762 24.8389 87.8161 24.8223 87.5948 24.8223C86.9418 24.8223 86.3054 24.9053 85.6856 25.0713C85.0769 25.2373 84.529 25.5085 84.042 25.8848C83.5551 26.25 83.1677 26.737 82.8799 27.3457C82.6032 27.9434 82.4649 28.6794 82.4649 29.5537V39H77.4014V20.4395H81.2364L81.9834 23.5605H82.2325C82.5977 22.9297 83.0515 22.3542 83.5938 21.834C84.1472 21.3027 84.7725 20.8822 85.4698 20.5723C86.1781 20.2513 86.9418 20.0908 87.7608 20.0908ZM97.9893 20.4395V39H92.9259V20.4395H97.9893ZM95.4659 13.168C96.2185 13.168 96.866 13.3451 97.4083 13.6992C97.9506 14.0423 98.2218 14.6898 98.2218 15.6416C98.2218 16.5824 97.9506 17.2354 97.4083 17.6006C96.866 17.9548 96.2185 18.1318 95.4659 18.1318C94.7022 18.1318 94.0492 17.9548 93.5069 17.6006C92.9757 17.2354 92.71 16.5824 92.71 15.6416C92.71 14.6898 92.9757 14.0423 93.5069 13.6992C94.0492 13.3451 94.7022 13.168 95.4659 13.168ZM108.832 47.168C106.242 47.168 104.261 46.7142 102.889 45.8066C101.527 44.9102 100.847 43.6484 100.847 42.0215C100.847 40.9036 101.195 39.9684 101.893 39.2158C102.59 38.4632 103.614 37.9264 104.964 37.6055C104.444 37.3841 103.99 37.0244 103.603 36.5264C103.215 36.0173 103.022 35.4805 103.022 34.916C103.022 34.2077 103.226 33.6211 103.636 33.1562C104.045 32.6803 104.637 32.2155 105.412 31.7617C104.438 31.3411 103.664 30.666 103.088 29.7363C102.524 28.8066 102.241 27.7109 102.241 26.4492C102.241 25.099 102.535 23.9535 103.121 23.0127C103.719 22.0609 104.582 21.3359 105.711 20.8379C106.851 20.3398 108.234 20.0908 109.861 20.0908C110.205 20.0908 110.603 20.113 111.057 20.1572C111.511 20.2015 111.926 20.2513 112.302 20.3066C112.689 20.362 112.949 20.4062 113.082 20.4395H119.557V23.0127L116.651 23.7598C116.917 24.1693 117.116 24.6064 117.249 25.0713C117.382 25.5361 117.448 26.0286 117.448 26.5488C117.448 28.541 116.751 30.096 115.357 31.2139C113.973 32.3206 112.047 32.874 109.579 32.874C108.993 32.8408 108.439 32.7965 107.919 32.7412C107.665 32.9404 107.471 33.1507 107.338 33.3721C107.205 33.5934 107.139 33.8258 107.139 34.0693C107.139 34.3128 107.238 34.5176 107.438 34.6836C107.648 34.8385 107.958 34.9603 108.367 35.0488C108.788 35.1263 109.308 35.165 109.928 35.165H113.082C115.119 35.165 116.668 35.6022 117.731 36.4766C118.804 37.3509 119.341 38.6348 119.341 40.3281C119.341 42.4974 118.433 44.1797 116.618 45.375C114.814 46.5703 112.219 47.168 108.832 47.168ZM109.048 43.8643C110.254 43.8643 111.289 43.748 112.152 43.5156C113.027 43.2943 113.696 42.9733 114.161 42.5527C114.626 42.1432 114.859 41.6507 114.859 41.0752C114.859 40.6104 114.72 40.2396 114.443 39.9629C114.178 39.6973 113.768 39.5091 113.215 39.3984C112.673 39.2878 111.975 39.2324 111.123 39.2324H108.5C107.88 39.2324 107.321 39.332 106.823 39.5312C106.336 39.7305 105.949 40.0072 105.661 40.3613C105.373 40.7266 105.23 41.1471 105.23 41.623C105.23 42.3203 105.562 42.8682 106.226 43.2666C106.901 43.665 107.842 43.8643 109.048 43.8643ZM109.861 29.7861C110.813 29.7861 111.511 29.4928 111.953 28.9062C112.396 28.3197 112.617 27.5228 112.617 26.5156C112.617 25.3978 112.385 24.5622 111.92 24.0088C111.466 23.4443 110.78 23.1621 109.861 23.1621C108.932 23.1621 108.234 23.4443 107.77 24.0088C107.305 24.5622 107.072 25.3978 107.072 26.5156C107.072 27.5228 107.299 28.3197 107.753 28.9062C108.218 29.4928 108.921 29.7861 109.861 29.7861ZM121.069 31.9609V27.8105H129.985V31.9609H121.069ZM150.622 29.6865C150.622 31.236 150.412 32.6084 149.991 33.8037C149.582 34.999 148.979 36.0117 148.182 36.8418C147.396 37.6608 146.444 38.2806 145.326 38.7012C144.22 39.1217 142.969 39.332 141.574 39.332C140.268 39.332 139.068 39.1217 137.972 38.7012C136.887 38.2806 135.941 37.6608 135.133 36.8418C134.336 36.0117 133.716 34.999 133.274 33.8037C132.842 32.6084 132.626 31.236 132.626 29.6865C132.626 27.6279 132.991 25.8848 133.722 24.457C134.452 23.0293 135.493 21.9447 136.843 21.2031C138.193 20.4616 139.804 20.0908 141.674 20.0908C143.412 20.0908 144.95 20.4616 146.289 21.2031C147.64 21.9447 148.696 23.0293 149.46 24.457C150.235 25.8848 150.622 27.6279 150.622 29.6865ZM137.789 29.6865C137.789 30.904 137.922 31.9277 138.188 32.7578C138.453 33.5879 138.868 34.2132 139.433 34.6338C139.997 35.0544 140.733 35.2646 141.641 35.2646C142.537 35.2646 143.262 35.0544 143.816 34.6338C144.38 34.2132 144.79 33.5879 145.044 32.7578C145.31 31.9277 145.443 30.904 145.443 29.6865C145.443 28.458 145.31 27.4398 145.044 26.6318C144.79 25.8128 144.38 25.1986 143.816 24.7891C143.251 24.3796 142.515 24.1748 141.608 24.1748C140.268 24.1748 139.294 24.6341 138.686 25.5527C138.088 26.4714 137.789 27.8493 137.789 29.6865Z" fill="#1B214F"/>
</svg>
