<svg width="16" height="16" viewBox="0 0 16 16" fill="none" xmlns="http://www.w3.org/2000/svg">
<g id="restaurant-outline" clip-path="url(#clip0_1_275)">
<path id="Vector" d="M1.79655 1.49188L13.31 13.0053C13.5285 13.2238 13.6512 13.5201 13.6512 13.8291C13.6512 14.138 13.5285 14.4343 13.31 14.6528C13.0915 14.8712 12.7952 14.9939 12.4862 14.9939C12.1773 14.9939 11.881 14.8712 11.6625 14.6528L8.84999 11.7919C8.66594 11.605 8.56268 11.3533 8.56249 11.0909V10.9181C8.56252 10.7857 8.53623 10.6546 8.48516 10.5323C8.43409 10.4101 8.35925 10.2993 8.26499 10.2063L7.90187 9.87094C7.7786 9.7572 7.62869 9.67629 7.46596 9.63566C7.30323 9.59503 7.13288 9.59599 6.97062 9.63844C6.71473 9.70523 6.44583 9.70394 6.1906 9.6347C5.93537 9.56547 5.70268 9.43069 5.51562 9.24376L2.84593 6.57376C1.26218 4.99001 0.679367 2.59844 1.79655 1.49188Z" stroke="white" stroke-linejoin="round"/>
<path id="Vector_2" d="M12.5 1L10.0859 3.41406C9.90018 3.59979 9.75282 3.82029 9.65229 4.06297C9.55175 4.30565 9.50001 4.56576 9.50001 4.82844V5.29281C9.50002 5.35851 9.48708 5.42357 9.46193 5.48427C9.43678 5.54497 9.39992 5.60012 9.35345 5.64656L9.00001 6M10 7L10.3534 6.64656C10.3999 6.60009 10.455 6.56322 10.5157 6.53808C10.5764 6.51293 10.6415 6.49999 10.7072 6.5H11.1716C11.4343 6.5 11.6944 6.44826 11.937 6.34772C12.1797 6.24718 12.4002 6.09983 12.5859 5.91406L15 3.5M13.75 2.25L11.25 4.75M6.25001 11.5L3.13376 14.6337C2.89935 14.8681 2.58146 14.9997 2.25001 14.9997C1.91855 14.9997 1.60067 14.8681 1.36626 14.6337C1.13192 14.3993 1.00027 14.0815 1.00027 13.75C1.00027 13.4185 1.13192 13.1007 1.36626 12.8663L4.00001 10.25" stroke="white" stroke-linecap="round" stroke-linejoin="round"/>
</g>
<defs>
<clipPath id="clip0_1_275">
<rect width="16" height="16" fill="white"/>
</clipPath>
</defs>
</svg>
