<svg width="16" height="16" viewBox="0 0 16 16" fill="none" xmlns="http://www.w3.org/2000/svg">
<g clip-path="url(#clip0_1_279)">
<path d="M1.79662 1.49188L13.3101 13.0053C13.5285 13.2238 13.6512 13.5201 13.6512 13.8291C13.6512 14.138 13.5285 14.4343 13.3101 14.6528C13.0915 14.8712 12.7952 14.9939 12.4863 14.9939C12.1774 14.9939 11.8811 14.8712 11.6626 14.6528L8.85005 11.7919C8.666 11.605 8.56275 11.3533 8.56255 11.0909V10.9181C8.56258 10.7857 8.53629 10.6546 8.48522 10.5323C8.43415 10.4101 8.35931 10.2993 8.26505 10.2063L7.90193 9.87094C7.77866 9.7572 7.62876 9.67629 7.46602 9.63566C7.30329 9.59503 7.13295 9.59599 6.97068 9.63844C6.71479 9.70523 6.44589 9.70394 6.19066 9.6347C5.93543 9.56547 5.70274 9.43069 5.51568 9.24376L2.84599 6.57376C1.26224 4.99001 0.679428 2.59844 1.79662 1.49188Z" stroke="white" stroke-linejoin="round"/>
<path d="M12.5 1L10.0859 3.41406C9.90015 3.59979 9.75279 3.82029 9.65226 4.06297C9.55172 4.30565 9.49998 4.56576 9.49998 4.82844V5.29281C9.49999 5.35851 9.48705 5.42357 9.4619 5.48427C9.43675 5.54497 9.39989 5.60012 9.35341 5.64656L8.99998 6M9.99998 7L10.3534 6.64656C10.3999 6.60009 10.455 6.56322 10.5157 6.53808C10.5764 6.51293 10.6415 6.49999 10.7072 6.5H11.1715C11.4342 6.5 11.6943 6.44826 11.937 6.34772C12.1797 6.24718 12.4002 6.09983 12.5859 5.91406L15 3.5M13.75 2.25L11.25 4.75M6.24998 11.5L3.13373 14.6337C2.89932 14.8681 2.58143 14.9997 2.24998 14.9997C1.91852 14.9997 1.60064 14.8681 1.36623 14.6337C1.13189 14.3993 1.00024 14.0815 1.00024 13.75C1.00024 13.4185 1.13189 13.1007 1.36623 12.8663L3.99998 10.25" stroke="white" stroke-linecap="round" stroke-linejoin="round"/>
</g>
<defs>
<clipPath id="clip0_1_279">
<rect width="16" height="16" fill="white"/>
</clipPath>
</defs>
</svg>
