<svg width="80" height="80" viewBox="0 0 80 80" fill="none" xmlns="http://www.w3.org/2000/svg">
<g id="warning-outline">
<path id="Vector" d="M13.3682 69.7266H66.6276C67.4926 69.7264 68.3428 69.5018 69.0951 69.0748C69.8474 68.6478 70.476 68.0329 70.9195 67.2902C71.363 66.5475 71.6063 65.7025 71.6255 64.8377C71.6447 63.9729 71.4393 63.1179 71.0292 62.3562L44.4011 12.9031C42.512 9.39687 37.4839 9.39687 35.5948 12.9031L8.96668 62.3562C8.55661 63.1179 8.35115 63.9729 8.37038 64.8377C8.3896 65.7025 8.63286 66.5475 9.07639 67.2902C9.51991 68.0329 10.1485 68.6478 10.9008 69.0748C11.653 69.5018 12.5032 69.7264 13.3682 69.7266Z" stroke="#D64242" stroke-width="5" stroke-linecap="round" stroke-linejoin="round"/>
<path id="Vector_2" d="M39.1031 30.5297L40 49.5922L40.8953 30.5375C40.9009 30.4157 40.8815 30.294 40.8384 30.1799C40.7953 30.0659 40.7294 29.9618 40.6448 29.874C40.5601 29.7863 40.4584 29.7167 40.3459 29.6696C40.2335 29.6225 40.1126 29.5988 39.9906 29.6C39.8708 29.6012 39.7525 29.6263 39.6426 29.674C39.5327 29.7217 39.4334 29.7909 39.3507 29.8775C39.268 29.9642 39.2034 30.0665 39.1609 30.1785C39.1184 30.2906 39.0988 30.4099 39.1031 30.5297Z" stroke="#D64242" stroke-width="5" stroke-linecap="round" stroke-linejoin="round"/>
<path id="Vector_3" d="M40 62.0703C39.3819 62.0703 38.7777 61.887 38.2638 61.5437C37.7499 61.2003 37.3494 60.7122 37.1129 60.1412C36.8764 59.5702 36.8145 58.9418 36.935 58.3357C37.0556 57.7295 37.3533 57.1726 37.7903 56.7356C38.2273 56.2986 38.7842 56.0009 39.3903 55.8804C39.9965 55.7598 40.6249 55.8217 41.1959 56.0582C41.7669 56.2947 42.255 56.6952 42.5983 57.2092C42.9417 57.7231 43.125 58.3272 43.125 58.9453C43.125 59.7741 42.7958 60.569 42.2097 61.155C41.6237 61.7411 40.8288 62.0703 40 62.0703Z" fill="#D64242"/>
</g>
</svg>
